<svg viewBox="0 0 200 240" xmlns="http://www.w3.org/2000/svg">
  <defs>
    <linearGradient id="dispGrad" x1="0%" y1="0%" x2="100%" y2="100%">
      <stop offset="0%" style="stop-color:#fff;stop-opacity:1" />
      <stop offset="100%" style="stop-color:#e8e8e8;stop-opacity:1" />
    </linearGradient>
    <filter id="dispShadow">
      <feGaussianBlur in="SourceAlpha" stdDeviation="3"/>
      <feOffset dx="2" dy="3" result="offsetblur"/>
      <feComponentTransfer>
        <feFuncA type="linear" slope="0.3"/>
      </feComponentTransfer>
      <feMerge>
        <feMergeNode/>
        <feMergeNode in="SourceGraphic"/>
      </feMerge>
    </filter>
  </defs>
  <circle cx="100" cy="110" r="85" fill="#4C6ABD" opacity="0.08"/>
  <g filter="url(#dispShadow)">
    <path d="M 80 50 Q 75 60 75 90 Q 75 150 80 170 Q 85 180 95 180 L 105 180 Q 115 180 120 170 Q 125 150 125 90 Q 125 60 120 50 Z" fill="url(#dispGrad)" stroke="#999" stroke-width="1.5"/>
    <path d="M 80 50 Q 77 65 77 90 Q 77 150 82 170 L 84 165 L 84 50 Z" fill="#fff" opacity="0.5"/>
  </g>
  <g filter="url(#dispShadow)">
    <ellipse cx="100" cy="55" rx="15" ry="8" fill="#4C6ABD" stroke="#2d3e7a" stroke-width="2"/>
    <ellipse cx="100" cy="55" rx="13" ry="6" fill="#fff" opacity="0.4"/>
  </g>
  <g><rect x="75" y="85" width="50" height="70" rx="3" fill="#4C6ABD" opacity="0.15"/><text x="100" y="130" font-family="Arial" font-size="14" font-weight="bold" fill="#4C6ABD" text-anchor="middle" opacity="0.6">PRO</text></g>
</svg>