<svg viewBox="0 0 200 240" xmlns="http://www.w3.org/2000/svg">
  <defs>
    <linearGradient id="glassGrad" x1="0%" y1="0%" x2="100%" y2="100%">
      <stop offset="0%" style="stop-color:#e0f2ff;stop-opacity:0.8" />
      <stop offset="100%" style="stop-color:#b3d9ff;stop-opacity:0.6" />
    </linearGradient>
    <filter id="glass3dShadow">
      <feGaussianBlur in="SourceAlpha" stdDeviation="3.5"/>
      <feOffset dx="2" dy="4" result="offsetblur"/>
      <feComponentTransfer>
        <feFuncA type="linear" slope="0.3"/>
      </feComponentTransfer>
      <feMerge>
        <feMergeNode/>
        <feMergeNode in="SourceGraphic"/>
      </feMerge>
    </filter>
  </defs>
  <circle cx="100" cy="110" r="85" fill="#4C6ABD" opacity="0.08"/>
  <g filter="url(#glass3dShadow)">
    <path d="M 60 80 L 70 70 L 80 70 Q 95 65 100 65 Q 105 65 120 70 L 130 70 L 140 80 L 135 170 Q 135 180 100 180 Q 65 180 65 170 Z" fill="url(#glassGrad)" stroke="#4C6ABD" stroke-width="2.5" opacity="0.9"/>
    <path d="M 68 72 L 75 72 Q 90 68 100 68 Q 110 68 125 72 L 132 72" stroke="#fff" stroke-width="1.5" fill="none" opacity="0.6"/>
    <path d="M 70 150 L 135 150" stroke="#fff" stroke-width="1" fill="none" opacity="0.4"/>
  </g>
  <g filter="url(#glass3dShadow)">
    <path d="M 90 70 L 85 75 L 85 130 L 90 135 Z" fill="#fff" opacity="0.3"/>
    <path d="M 110 70 L 130 75 L 125 130 L 110 135 Z" fill="#4C6ABD" opacity="0.15"/>
  </g>
  <g opacity="0.7"><text x="100" y="155" font-family="Arial" font-size="12" font-weight="bold" fill="#4C6ABD" text-anchor="middle">GLASS</text></g>
</svg>